<svg width="350" height="350" xmlns="http://www.w3.org/2000/svg">
 <!-- Created with Method Draw - http://github.com/duopixel/Method-Draw/ -->

 <g>
  <title>background</title>
  <rect x="-1" y="-1" width="352" height="352" id="canvas_background" fill="none"/>
  <g id="canvasGrid" display="none">
   <rect id="svg_2" width="100%" height="100%" x="0" y="0" stroke-width="0" fill="url(#gridpattern)"/>
  </g>
 </g>
 <g>
  <title>Layer 1</title>
  <path fill="#fff" stroke-width="5" d="m28.500005,312.30002l43.125,-186.00002l35.9375,0.25l35.93751,0.25l34.9375,0.25l80.06249,185.25002l-230,0z" id="svg_1" transform="rotate(-180 143.5,219.30001831054688) " stroke="#000"/>
  <line fill="none" stroke="#000" stroke-width="5" stroke-opacity="null" fill-opacity="null" x1="480.5" y1="123" x2="481.5" y2="124" id="svg_5" stroke-linejoin="null" stroke-linecap="null"/>
  <line fill="none" stroke-width="5" stroke-opacity="null" fill-opacity="null" x1="27.5" y1="124.999999" x2="107.500004" y2="94.000002" id="svg_6" stroke-linejoin="null" stroke-linecap="null" stroke="#000"/>
  <line fill="none" stroke-width="5" stroke-opacity="null" fill-opacity="null" x1="107.5" y1="92" x2="301.499996" y2="92" id="svg_7" stroke-linejoin="null" stroke-linecap="null" stroke="#000"/>
  <line fill="none" stroke="#000" stroke-width="5" stroke-opacity="null" fill-opacity="null" x1="260.5" y1="123" x2="299.5" y2="101" id="svg_8" stroke-linejoin="null" stroke-linecap="null" transform="rotate(-3.8977584838867188 279.9999999999996,111.9999999999998) "/>
  <line fill="none" stroke-width="5" stroke-opacity="null" fill-opacity="null" x1="286.830701" y1="152.879884" x2="250.169301" y2="278.120112" id="svg_10" stroke-linejoin="null" stroke-linecap="null" transform="rotate(-1.42339289188385 268.49999999999625,215.4999999999998) " stroke="#000"/>
  <line fill="none" stroke-width="5" stroke-opacity="null" fill-opacity="null" x1="213.5" y1="314" x2="251.5" y2="280" id="svg_11" stroke-linejoin="null" stroke-linecap="null" stroke="#000"/>
  <path fill="#ffffff" stroke-width="5" d="m265.806863,160.532279l10.322397,-56.291266l34.407991,0l10.322393,56.291266l-55.052781,0z" id="svg_13" transform="rotate(150.53781127929688 293.333251953125,132.3866424560547) " stroke="#000"/>
  <rect fill="#ffffff" stroke-width="5" stroke-opacity="null" x="249.5" y="20" width="7" height="106.999999" id="svg_15" stroke="#000" transform="rotate(25 253,73.49999999999999) "/>
  <rect fill="#ffffff" stroke-width="5" stroke-opacity="null" x="235.746861" y="16.833031" width="7" height="110.564162" id="svg_16" transform="rotate(25 239.2468566894532,72.1151123046875) " stroke="#000"/>
  <text fill="#000000" stroke-width="0" stroke-opacity="null" x="633.5" y="250" id="svg_17" font-size="24" font-family="Junction, sans-serif" text-anchor="start" xml:space="preserve" stroke="#000">API</text>
  <line fill="none" stroke-width="5" stroke-opacity="null" fill-opacity="null" x1="106.5" y1="94" x2="114.5" y2="125" id="svg_19" stroke-linejoin="null" stroke-linecap="null" stroke="#000"/>
  <path fill="#ffffff" stroke-width="5" d="m23.662423,188.29501l44.437505,-59.000002l148.125026,0l44.437489,59.000002l-237.00002,0z" id="svg_20" transform="rotate(-180 142.16244506835938,158.79501342773438) " stroke="#000"/>
  <text opacity="0.67" stroke="#000" transform="rotate(13 152.50341796875017,225.7467193603516) matrix(0.6852307319641111,0,0,0.9109495371311025,20.283233880996708,35.76933148379945) " xml:space="preserve" text-anchor="start" font-family="'Courier New', Courier, monospace" font-size="30" id="svg_3" y="216.31571" x="84.959362" fill-opacity="null" stroke-opacity="null" stroke-width="3" fill="#000000">{ API:togo }</text>
 </g>
</svg>